<?xml version="1.0" encoding="UTF-8" standalone="no"?>
<svg width="144px" height="22px" viewBox="0 0 144 22" version="1.1" xmlns="http://www.w3.org/2000/svg" xmlns:xlink="http://www.w3.org/1999/xlink" xmlns:sketch="http://www.bohemiancoding.com/sketch/ns">
    <!-- Generator: Sketch 3.5.1 (25234) - http://www.bohemiancoding.com/sketch -->
    <title>wordmark-elsevier</title>
    <desc>Created with Sketch.</desc>
    <defs></defs>
    <g id="Final" stroke="none" stroke-width="1" fill="none" fill-rule="evenodd" sketch:type="MSPage">
        <g id="Tablet" sketch:type="MSArtboardGroup" transform="translate(-51.000000, -762.000000)" fill="#E9711C">
            <g id="Footer" sketch:type="MSLayerGroup" transform="translate(0.000000, 181.000000)">
                <g id="Elseiver" transform="translate(16.000000, 552.000000)" sketch:type="MSShapeGroup">
                    <g id="wordmark-elsevier" transform="translate(35.000000, 29.000000)">
                        <g id="Group">
                            <path d="M0,20.2770652 C2.33008696,20.2770652 3.14623913,19.7918696 3.14623913,17.3106522 L3.14623913,3.57165217 C3.14623913,1.09019565 2.33008696,0.606195652 2.65488115e-17,0.606195652 L2.65488115e-17,0 L17.4529348,0 L17.7145435,4.5705 L17.1317826,4.5705 C16.8120652,2.03882609 15.5542391,1.2736087 13.1390217,1.27121739 L7.60434783,1.27121739 C6.29391304,1.27121739 6.29391304,1.63493478 6.29391304,3.39015217 L6.29391304,9.23067391 L12.4414783,9.23067391 C14.4518478,9.23067391 15.0637826,8.38319565 15.2670435,6.3556087 L15.8498043,6.3556087 L15.8498043,13.3762391 L15.2670435,13.3762391 C15.0924783,11.3795 14.4221957,10.5018913 12.4414783,10.5018913 L6.29367391,10.5018913 L6.29367391,17.0688913 C6.29367391,18.9819348 6.41323913,19.6036739 7.75236957,19.6106087 L13.9008913,19.6106087 C16.5222391,19.6106087 18.1550217,17.9465 18.9123478,15.5551957 L19.4654565,15.7675435 L17.8903043,20.8823043 L0,20.8823043 L0,20.2770652 L0,20.2770652 Z" id="Shape"></path>
                            <path d="M19,20.2770652 C21.1564783,20.1558261 21.9432174,19.7619783 21.9432174,17.3718696 L21.9432174,3.5113913 C21.9432174,1.12008696 21.1562391,0.72623913 19,0.605956522 L19,0 L28.2359348,0 L28.2359348,0.606195652 C25.9048913,0.606195652 25.0894565,1.09019565 25.0894565,3.57165217 L25.0894565,16.918 C25.0894565,18.6158261 25.1372826,19.6201739 26.8590217,19.611087 L31.0258696,19.611087 C34.1426957,19.611087 35.5997174,18.2793696 36.8233478,15.4043043 L37.5228043,15.5255435 L35.7532391,20.8823043 L19,20.8823043 L19,20.2770652 L19,20.2770652 Z" id="Shape"></path>
                            <path d="M38,15.192913 L38.583,15.192913 C39.7485217,17.8472609 41.5960435,20.7407391 44.7525652,20.7311739 C46.8217609,20.7311739 48.5698043,19.3985 48.5698043,17.310413 C48.5698043,15.6154565 46.8796304,14.1326087 44.2286304,12.2561522 C40.8193478,9.83591304 38.605,8.41332609 38.605,5.65926087 C38.605,2.14882609 41.256,0 44.4613043,0 C46.7629348,0 47.57,0.956521739 48.8373913,0.968478261 C49.3326304,0.968478261 49.4201522,0.696108696 49.3326304,0.212108696 L49.9156304,0.212108696 L50.5856739,6.44552174 L50.0026739,6.44552174 C49.1862826,3.75243478 47.3801304,1.11984783 44.436913,1.11984783 C42.6307609,1.11984783 41.1737391,2.51134783 41.1737391,4.38780435 C41.1737391,6.34867391 43.1824348,7.61606522 46.3867826,9.5291087 C49.0093261,11.0834565 51.575913,12.972587 51.575913,15.9449783 C51.575913,19.2741522 48.8648913,21.8457609 45.3692826,21.8457609 C43.2706739,21.8457609 41.0575217,20.967913 40.5029783,20.967913 C40.1538478,20.967913 39.7750652,21.1805 39.7171957,21.6341304 L39.1344348,21.6341304 L38,15.192913 L38,15.192913 Z" id="Shape"></path>
                            <path d="M52,20.2770652 C54.330087,20.2770652 55.1462391,19.7918696 55.1462391,17.3106522 L55.1462391,3.57165217 C55.1462391,1.09019565 54.3298478,0.606195652 52,0.606195652 L52,0 L69.4526957,0 L69.7147826,4.5705 L69.1317826,4.5705 C68.8111087,2.02782609 67.5580652,1.27145652 65.1397391,1.27145652 L59.604587,1.27145652 C58.2927174,1.27145652 58.2927174,1.63517391 58.2927174,3.3903913 L58.2927174,9.23091304 L64.4412391,9.23091304 C66.4513696,9.23091304 67.062587,8.38343478 67.2668043,6.35584783 L67.8495652,6.35584783 L67.8495652,13.3764783 L67.2668043,13.3764783 C67.092,11.3797391 66.4219565,10.5021304 64.4412391,10.5021304 L58.2927174,10.5021304 L58.2927174,17.0691304 C58.2927174,18.9821739 58.4122826,19.603913 59.751413,19.6108478 L65.8989783,19.6108478 C68.5215217,19.6108478 70.1531087,17.9467391 70.9106739,15.5554348 L71.4637826,15.7677826 L69.8891087,20.8823043 L52,20.8823043 L52,20.2770652 L52,20.2770652 Z" id="Shape"></path>
                            <path d="M81.3914565,21.1243043 L80.9552826,21.1243043 L75.331413,8.26195652 C74.3992826,6.14421739 73.5546739,3.99515217 72.3891522,1.96756522 C71.8936739,1.12008696 70.99,0.606195652 70,0.606195652 L70,0 L78.653413,0 L78.653413,0.606195652 C77.8372609,0.606195652 76.2054348,0.606195652 76.2054348,1.78654348 C76.2054348,2.16915217 77.1141304,4.29741304 77.9271739,6.21045652 L82.151413,16.1365217 L87.2219348,4.48513043 C87.8331522,3.09363043 88.0086739,2.33630435 88.0086739,1.70093478 C88.0086739,1.06580435 87.3089783,0.702086957 85.794087,0.611934783 L85.794087,0 L91.9713043,0 L91.9713043,0.606195652 C91.6209783,0.666217391 91.2424348,0.726478261 90.8930652,0.908695652 C89.7851739,1.48380435 88.6784783,4.5705 88.1538261,5.78073913 L81.3914565,21.1243043 L81.3914565,21.1243043 Z" id="Shape"></path>
                            <path d="M92,20.2770652 C94.3312826,20.2770652 95.1464783,19.7918696 95.1464783,17.3106522 L95.1464783,3.57165217 C95.1464783,1.09019565 94.3312826,0.606195652 92,0.606195652 L92,0 L101.440391,0 L101.440391,0.606195652 C99.1091087,0.606195652 98.2941522,1.09019565 98.2941522,3.57165217 L98.2941522,17.3106522 C98.2941522,19.7976087 99.1071957,20.2758696 101.450674,20.2770652 L101.450674,20.8820652 L92.0102826,20.8820652 L92.0102826,20.2770652 L92,20.2770652 Z" id="Shape"></path>
                            <path d="M103,20.2770652 C105.331283,20.2770652 106.147674,19.7918696 106.147674,17.3106522 L106.147674,3.57165217 C106.147674,1.09019565 105.331283,0.606195652 103,0.606195652 L103,0 L120.452696,0 L120.715739,4.5705 L120.132978,4.5705 C119.812065,2.02782609 118.5595,1.27145652 116.140935,1.27145652 L110.605783,1.27145652 C109.294152,1.27145652 109.294152,1.63517391 109.294152,3.3903913 L109.294152,9.23091304 L115.441717,9.23091304 C117.452804,9.23091304 118.064261,8.38343478 118.268,6.35584783 L118.851,6.35584783 L118.851,13.3764783 L118.268,13.3764783 C118.093435,11.3797391 117.42363,10.5021304 115.441717,10.5021304 L109.294152,10.5021304 L109.294152,17.0691304 C109.294152,18.9821739 109.413717,19.603913 110.752848,19.6108478 L116.900174,19.6108478 C119.522957,19.6108478 121.154304,17.9467391 121.91163,15.5554348 L122.465935,15.7677826 L120.890304,20.8823043 L103,20.8823043 L103,20.2770652 L103,20.2770652 Z" id="Shape"></path>
                            <path d="M128.293196,2.63402174 C128.293196,1.21143478 128.643283,1.12032609 130.56613,1.12032609 C133.450522,1.12032609 136.06613,2.12467391 136.06613,5.54423913 C136.06613,9.23593478 133.065043,10.2948043 129.91737,10.2948043 L128.286261,10.2948043 L128.286261,2.63402174 L128.293196,2.63402174 Z M143.269457,20.2773043 C141.958783,19.913587 141.491522,19.5811957 140.705739,18.612 L134.29513,10.8048696 C137.44137,10.1388913 139.6275,8.56469565 139.6275,5.11547826 C139.6275,0.242717391 135.198804,0 131.555891,0 L122,0 L122,0.606195652 C124.330326,0.606195652 125.156522,1.08445652 125.156522,3.57141304 L125.156522,17.310413 C125.156522,19.7916304 124.34037,20.2768261 122.010043,20.2768261 L122.010043,20.8818261 L131.450435,20.8818261 L131.450435,20.2768261 C129.119391,20.2768261 128.303478,19.7916304 128.303478,17.310413 L128.303478,11.5612391 L130.954957,11.5612391 L138.5495,20.8825435 L143.269457,20.8825435 L143.269457,20.2773043 L143.269457,20.2773043 Z" id="Shape"></path>
                        </g>
                    </g>
                </g>
            </g>
        </g>
    </g>
</svg>