<?xml version="1.0" encoding="UTF-8" standalone="no"?>
<svg width="118px" height="19px" viewBox="0 0 118 19" version="1.1" xmlns="http://www.w3.org/2000/svg" xmlns:xlink="http://www.w3.org/1999/xlink" xmlns:sketch="http://www.bohemiancoding.com/sketch/ns">
    <!-- Generator: Sketch 3.5.1 (25234) - http://www.bohemiancoding.com/sketch -->
    <title>Layer_1</title>
    <desc>Created with Sketch.</desc>
    <defs>
        <rect id="path-1" x="0" y="0" width="117.673685" height="18.7966296"></rect>
        <rect id="path-3" x="0" y="0" width="117.673685" height="18.7966296"></rect>
        <rect id="path-5" x="0" y="0" width="117.673685" height="18.7966296"></rect>
        <rect id="path-7" x="0" y="0" width="117.673685" height="18.7966296"></rect>
        <rect id="path-9" x="0" y="0" width="117.673685" height="18.7966296"></rect>
        <rect id="path-11" x="0" y="0" width="117.673685" height="18.7966296"></rect>
        <rect id="path-13" x="0" y="0" width="117.673685" height="18.7966296"></rect>
        <rect id="path-15" x="0" y="0" width="117.673685" height="18.7966296"></rect>
        <rect id="path-17" x="0" y="0" width="117.673685" height="18.7966296"></rect>
        <rect id="path-19" x="0" y="0" width="117.673685" height="18.7966296"></rect>
        <rect id="path-21" x="0" y="0" width="117.673685" height="18.7966296"></rect>
        <rect id="path-23" x="0" y="0" width="117.673685" height="18.7966296"></rect>
    </defs>
    <g id="Final" stroke="none" stroke-width="1" fill="none" fill-rule="evenodd" sketch:type="MSPage">
        <g id="Tablet" sketch:type="MSArtboardGroup" transform="translate(-51.000000, -860.000000)">
            <g id="Footer" sketch:type="MSLayerGroup" transform="translate(0.000000, 181.000000)">
                <g id="Elseiver" transform="translate(16.000000, 552.000000)">
                    <g id="RelexLogo" transform="translate(35.000000, 127.000000)">
                        <g id="Layer_1">
                            <g id="Group">
                                <g id="Clipped">
                                    <mask id="mask-2" sketch:name="SVGID_1_" fill="white">
                                        <use xlink:href="#path-1"></use>
                                    </mask>
                                    <g id="SVGID_1_"></g>
                                    <path d="M7.28861111,8.23016667 C11.1406852,8.23016667 15.7858333,7.3237963 15.7858333,3.61246296 C15.7861852,0.982722222 13.1015556,0 10.6487963,0 C6.90262963,0 0,2.08507407 0,9.48557407 C0,13.1993704 2.82677778,15.3414444 7.31077778,15.3414444 C12.0516296,15.3414444 15.496963,12.2564074 16.5507593,8.11616667 C13.7669074,12.9182407 10.2272778,14.4129074 7.33962963,14.4129074 C3.75390741,14.4129074 2.38661111,11.7500926 2.38661111,9.46903704 C2.38661111,2.93831481 7.45538889,0.743814815 10.6530185,0.743814815 C12.8116296,0.743814815 14.0754815,2.1287037 14.0754815,3.64764815 C14.0754815,7.84101852 8.03383333,7.72138889 5.27637037,7.72138889 C4.99383333,7.72138889 4.12440741,7.72807407 3.95375926,7.72033333 L3.3717963,8.32340741 C4.63459259,8.50214815 6.38153704,8.85012963 8.27801852,9.80927778 C12.2201667,11.7993519 15.929037,17.0539074 20.8387778,17.0539074 C22.6198519,17.0539074 23.0835926,16.511 23.4196111,16.036 C21.0150556,17.567963 16.9856481,14.9111296 14.8136667,12.8556111 C13.0255556,11.1646111 11.4460926,9.24596296 7.28861111,8.23016667" id="Shape" fill="#E9711C" sketch:type="MSShapeGroup" mask="url(#mask-2)"></path>
                                </g>
                                <g id="Clipped">
                                    <mask id="mask-4" sketch:name="SVGID_1_" fill="white">
                                        <use xlink:href="#path-3"></use>
                                    </mask>
                                    <g id="SVGID_1_"></g>
                                    <path d="M31.1929074,15.1008519 C31.0440741,15.1008519 30.9691296,15.0431481 30.913537,14.9083889 L28.491037,9.80266667 L26.3106111,9.80266667 C26.2363704,9.80266667 26.1994259,9.84137037 26.1994259,9.91877778 L26.1994259,14.9087407 C26.1994259,15.0241481 26.1244815,15.1012037 26.0122407,15.1012037 L24.1864815,15.1012037 C24.0742407,15.1012037 24,15.0241481 24,14.9087407 L24,2.19316667 C24,2.07705556 24.0742407,2 24.1864815,2 L29.0870741,2 C31.4163333,2 33.1305556,3.59916667 33.1305556,5.91153704 C33.1305556,7.62611111 32.1802037,8.95540741 30.7263519,9.5137963 L33.3916296,14.8503333 C33.4658704,14.9857963 33.3916296,15.1012037 33.2610926,15.1012037 L31.1929074,15.1012037 L31.1929074,15.1008519 Z M30.9504815,5.91118519 C30.9504815,4.774 30.1683148,4.0425 29.0131852,4.0425 L26.310963,4.0425 C26.2367222,4.0425 26.1997778,4.0805 26.1997778,4.15790741 L26.1997778,7.64546296 C26.1997778,7.72181481 26.2363704,7.76087037 26.310963,7.76087037 L29.0131852,7.76087037 C30.167963,7.76087037 30.9504815,7.02866667 30.9504815,5.91118519 L30.9504815,5.91118519 Z" id="Shape" fill="#666666" sketch:type="MSShapeGroup" mask="url(#mask-4)"></path>
                                </g>
                                <g id="Clipped">
                                    <mask id="mask-6" sketch:name="SVGID_1_" fill="white">
                                        <use xlink:href="#path-5"></use>
                                    </mask>
                                    <g id="SVGID_1_"></g>
                                    <path d="M36,2.19316667 C36,2.07705556 36.0742407,2 36.1864815,2 L43.8797222,2 C43.9912593,2 44.0658519,2.07705556 44.0658519,2.19316667 L44.0658519,3.85003704 C44.0658519,3.9657963 43.9912593,4.04285185 43.8797222,4.04285185 L38.310963,4.04285185 C38.2363704,4.04285185 38.1990741,4.08085185 38.1990741,4.15825926 L38.1990741,7.35624074 C38.1990741,7.4332963 38.2363704,7.47164815 38.310963,7.47164815 L42.7886296,7.47164815 C42.9001667,7.47164815 42.9751111,7.54905556 42.9751111,7.66411111 L42.9751111,9.32098148 C42.9751111,9.43674074 42.9001667,9.5137963 42.7886296,9.5137963 L38.310963,9.5137963 C38.2363704,9.5137963 38.1990741,9.5525 38.1990741,9.62955556 L38.1990741,12.9432963 C38.1990741,13.0203519 38.2363704,13.0587037 38.310963,13.0587037 L43.8797222,13.0587037 C43.9912593,13.0587037 44.0658519,13.1361111 44.0658519,13.2518704 L44.0658519,14.9087407 C44.0658519,15.0241481 43.9912593,15.1012037 43.8797222,15.1012037 L36.1864815,15.1012037 C36.0742407,15.1012037 36,15.0241481 36,14.9087407 L36,2.19316667 L36,2.19316667 Z" id="Shape" fill="#666666" sketch:type="MSShapeGroup" mask="url(#mask-6)"></path>
                                </g>
                                <g id="Clipped">
                                    <mask id="mask-8" sketch:name="SVGID_1_" fill="white">
                                        <use xlink:href="#path-7"></use>
                                    </mask>
                                    <g id="SVGID_1_"></g>
                                    <path d="M46,2.19316667 C46,2.07705556 46.0745926,2 46.1861296,2 L48.0125926,2 C48.1241296,2 48.1990741,2.07705556 48.1990741,2.19316667 L48.1990741,12.9432963 C48.1990741,13.0203519 48.2363704,13.0587037 48.3106111,13.0587037 L53.4905741,13.0587037 C53.602463,13.0587037 53.6774074,13.1361111 53.6774074,13.2518704 L53.6774074,14.9087407 C53.6774074,15.0241481 53.602463,15.1012037 53.4905741,15.1012037 L46.1861296,15.1012037 C46.0745926,15.1012037 46,15.0241481 46,14.9087407 L46,2.19316667 L46,2.19316667 Z" id="Shape" fill="#666666" sketch:type="MSShapeGroup" mask="url(#mask-8)"></path>
                                </g>
                                <g id="Clipped">
                                    <mask id="mask-10" sketch:name="SVGID_1_" fill="white">
                                        <use xlink:href="#path-9"></use>
                                    </mask>
                                    <g id="SVGID_1_"></g>
                                    <path d="M69,8.74288889 C69,6.46957407 69.1488333,5.60225926 69.353963,4.94746296 C69.9686481,3.00207407 71.4221481,2 73.491037,2 C75.5595741,2 76.8448889,3.05977778 77.4595741,4.42742593 C77.4972222,4.52383333 77.4972222,4.62024074 77.3853333,4.67794444 L76.7889444,4.98616667 C76.6957037,5.02451852 76.6028148,5.00551852 76.5468704,4.90911111 C75.9128333,3.71422222 74.9814815,3.04007407 73.472037,3.04007407 C71.9066481,3.04007407 70.8444074,3.81133333 70.3785556,5.25638889 C70.2114259,5.75672222 70.0812407,6.56598148 70.0812407,8.74288889 C70.0812407,10.9197963 70.2114259,11.7287037 70.3785556,12.2297407 C70.8444074,13.6747963 71.9066481,14.4460556 73.472037,14.4460556 C74.9997778,14.4460556 76.0996667,13.6941481 76.5651667,12.2684444 C76.733,11.7681111 76.8638889,11.0162037 76.8638889,9.76431481 C76.8638889,9.68690741 76.8265926,9.64890741 76.752,9.64890741 L73.8826481,9.64890741 C73.7707593,9.64890741 73.6961667,9.57185185 73.6961667,9.45609259 L73.6961667,8.8202963 C73.6961667,8.70453704 73.7707593,8.62748148 73.8826481,8.62748148 L77.7396481,8.62748148 C77.8511852,8.62748148 77.9261296,8.70453704 77.9261296,8.8202963 L77.9261296,9.6095 C77.9261296,10.9201481 77.7772963,11.9218704 77.590463,12.5196667 C76.9944259,14.4650556 75.5219259,15.4864815 73.4913889,15.4864815 C71.4225,15.4864815 69.969,14.4844074 69.3543148,12.5383148 C69.1488333,11.8835185 69,11.0162037 69,8.74288889" id="Shape" fill="#666666" sketch:type="MSShapeGroup" mask="url(#mask-10)"></path>
                                </g>
                                <g id="Clipped">
                                    <mask id="mask-12" sketch:name="SVGID_1_" fill="white">
                                        <use xlink:href="#path-11"></use>
                                    </mask>
                                    <g id="SVGID_1_"></g>
                                    <path d="M80.1864815,15.3824815 C80.0749444,15.3824815 80,15.3054259 80,15.1900185 L80,6.38562963 C80,6.26987037 80.0749444,6.19281481 80.1864815,6.19281481 L80.8201667,6.19281481 C80.9313519,6.19281481 81.0062963,6.26987037 81.0062963,6.38562963 L81.0062963,7.56011111 L81.0245926,7.56011111 C81.3599074,6.65514815 82.1614259,6 83.4097963,6 C84.1180741,6 84.7700556,6.25051852 85.1986111,6.6357963 C85.2918519,6.6935 85.3101481,6.78990741 85.2362593,6.88666667 L84.8632963,7.42535185 C84.7887037,7.52175926 84.6947593,7.52175926 84.5835741,7.46405556 C84.1740185,7.19418519 83.726463,7.00207407 83.1677222,7.00207407 C81.6023333,7.00207407 81.0059444,8.40807407 81.0059444,10.1036481 L81.0059444,15.1900185 C81.0059444,15.3054259 80.931,15.3824815 80.8198148,15.3824815 L80.1864815,15.3824815 L80.1864815,15.3824815 Z" id="Shape" fill="#666666" sketch:type="MSShapeGroup" mask="url(#mask-12)"></path>
                                </g>
                                <g id="Clipped">
                                    <mask id="mask-14" sketch:name="SVGID_1_" fill="white">
                                        <use xlink:href="#path-13"></use>
                                    </mask>
                                    <g id="SVGID_1_"></g>
                                    <path d="M85.2980185,13.1862222 C85.111537,12.5697778 85,11.8956296 85,10.7781481 C85,9.68001852 85.1111852,9.00587037 85.2980185,8.38942593 C85.7828704,6.86696296 86.9932407,6 88.6145741,6 C90.2549074,6 91.4659815,6.86696296 91.9501296,8.38942593 C92.1366111,9.00587037 92.2485,9.68001852 92.2485,10.7781481 C92.2485,11.8956296 92.136963,12.5697778 91.9501296,13.1862222 C91.4656296,14.7083333 90.2549074,15.5756481 88.6145741,15.5756481 C86.9932407,15.5756481 85.7828704,14.7083333 85.2980185,13.1862222 M90.9814815,12.8593519 C91.1486111,12.338963 91.2235556,11.7805741 91.2235556,10.7785 C91.2235556,9.79542593 91.1486111,9.23703704 90.9814815,8.717 C90.6271667,7.61887037 89.7704074,7.00242593 88.6142222,7.00242593 C87.4780926,7.00242593 86.6206296,7.61887037 86.2666667,8.717 C86.0988333,9.23738889 86.0245926,9.79542593 86.0245926,10.7785 C86.0245926,11.7805741 86.0991852,12.3393148 86.2666667,12.8593519 C86.6206296,13.9574815 87.4777407,14.5739259 88.6142222,14.5739259 C89.7704074,14.5739259 90.6271667,13.9574815 90.9814815,12.8593519" id="Shape" fill="#666666" sketch:type="MSShapeGroup" mask="url(#mask-14)"></path>
                                </g>
                                <g id="Clipped">
                                    <mask id="mask-16" sketch:name="SVGID_1_" fill="white">
                                        <use xlink:href="#path-15"></use>
                                    </mask>
                                    <g id="SVGID_1_"></g>
                                    <path d="M99.8695926,15.1896667 C99.7580556,15.1896667 99.6838148,15.1126111 99.6838148,14.9972037 L99.6838148,13.9184259 L99.6651667,13.9184259 C99.2176111,14.8240926 98.2859074,15.3828333 97.0751852,15.3828333 C95.099537,15.3828333 94,14.110537 94,11.8949259 L94,6.19281481 C94,6.07705556 94.0749444,6 94.1864815,6 L94.8201667,6 C94.9317037,6 95.0062963,6.07705556 95.0062963,6.19281481 L95.0062963,11.6254074 C95.0062963,13.4750926 95.7515185,14.3807593 97.2986111,14.3807593 C98.6398704,14.3807593 99.6838148,13.4166852 99.6838148,11.8178704 L99.6838148,6.19281481 C99.6838148,6.07705556 99.7580556,6 99.8695926,6 L100.50363,6 C100.615167,6 100.690111,6.07705556 100.690111,6.19281481 L100.690111,14.9972037 C100.690111,15.1126111 100.615167,15.1896667 100.50363,15.1896667 L99.8695926,15.1896667 L99.8695926,15.1896667 Z" id="Shape" fill="#666666" sketch:type="MSShapeGroup" mask="url(#mask-16)"></path>
                                </g>
                                <g id="Clipped">
                                    <mask id="mask-18" sketch:name="SVGID_1_" fill="white">
                                        <use xlink:href="#path-17"></use>
                                    </mask>
                                    <g id="SVGID_1_"></g>
                                    <path d="M103.186481,18.851037 C103.074944,18.851037 103,18.7739815 103,18.6578704 L103,6.38562963 C103,6.26987037 103.074944,6.19281481 103.186481,6.19281481 L103.819815,6.19281481 C103.931352,6.19281481 104.006296,6.26987037 104.006296,6.38562963 L104.006296,7.50311111 L104.024944,7.50311111 C104.4535,6.6357963 105.255019,6 106.726815,6 C108.292204,6 109.279852,6.7315 109.745352,8.19625926 C109.969833,8.94816667 110.06237,9.75672222 110.06237,10.7975 C110.06237,11.8182222 109.969481,12.6274815 109.745352,13.3786852 C109.279852,14.8437963 108.292204,15.5749444 106.726815,15.5749444 C105.255019,15.5749444 104.4535,14.9391481 104.024944,14.072537 L104.006296,14.072537 L104.006296,18.6575185 C104.006296,18.7736296 103.931352,18.8506852 103.819815,18.8506852 L103.186481,18.8506852 L103.186481,18.851037 Z M108.795,12.9547037 C108.98113,12.3766111 109.037074,11.6064074 109.037074,10.7975 C109.037074,9.96888889 108.981481,9.19833333 108.795,8.62024074 C108.460037,7.57981481 107.695815,7.00172222 106.521685,7.00172222 C105.4035,7.00172222 104.584037,7.54111111 104.24837,8.62024074 C104.080537,9.12092593 104.005944,9.79542593 104.005944,10.7975 C104.005944,11.7992222 104.080537,12.4543704 104.24837,12.9547037 C104.584037,14.0338333 105.4035,14.5739259 106.521685,14.5739259 C107.695815,14.5739259 108.460037,13.9958333 108.795,12.9547037 L108.795,12.9547037 Z" id="Shape" fill="#666666" sketch:type="MSShapeGroup" mask="url(#mask-18)"></path>
                                </g>
                                <g id="Clipped">
                                    <mask id="mask-20" sketch:name="SVGID_1_" fill="white">
                                        <use xlink:href="#path-19"></use>
                                    </mask>
                                    <g id="SVGID_1_"></g>
                                    <path d="M62.915636,15.1005 C62.7664508,15.1005 62.6925619,15.0427963 62.6169138,14.908037 L60.0645805,10.457463 L60.0272842,10.457463 L57.4563027,14.908037 C57.3813582,15.0427963 57.3071175,15.1005 57.1575805,15.1005 L55.1449879,15.1005 C55.0144508,15.1005 54.9592101,14.9850926 55.033099,14.8503333 L58.8162101,8.31925926 L55.3128212,2.25051852 C55.2382286,2.11505556 55.2941731,2 55.4243582,2 L57.4373027,2 C57.5864879,2 57.6610805,2.05735185 57.7353212,2.19281481 L60.0269323,6.161 L60.0642286,6.161 L62.3558397,2.19281481 C62.4307842,2.05735185 62.5053768,2 62.6545619,2 L64.6671545,2 C64.7973397,2 64.8532842,2.11505556 64.7786916,2.25051852 L61.2756545,8.31925926 L65.0584138,14.8503333 C65.1326545,14.9850926 65.0767101,15.1005 64.9461731,15.1005 L62.915636,15.1005 L62.915636,15.1005 Z" id="Shape" fill="#666666" sketch:type="MSShapeGroup" mask="url(#mask-20)"></path>
                                </g>
                                <g id="Clipped">
                                    <mask id="mask-22" sketch:name="SVGID_1_" fill="white">
                                        <use xlink:href="#path-21"></use>
                                    </mask>
                                    <g id="SVGID_1_"></g>
                                    <path d="M111.293407,6.45409259 C111.255407,6.45409259 111.229722,6.4277037 111.229722,6.38759259 L111.229722,2.73361111 C111.229722,2.70722222 111.217056,2.69385185 111.19137,2.69385185 L110.064741,2.69385185 C110.026389,2.69385185 110,2.66816667 110,2.62840741 L110,2.06544444 C110,2.02638889 110.026037,2 110.064741,2 L113.142037,2 C113.181093,2 113.206426,2.02638889 113.206426,2.06544444 L113.206426,2.62840741 C113.206426,2.66816667 113.181444,2.69385185 113.142037,2.69385185 L112.015759,2.69385185 C111.990074,2.69385185 111.977407,2.70722222 111.977407,2.73361111 L111.977407,6.38759259 C111.977407,6.42735185 111.952426,6.45409259 111.914074,6.45409259 L111.293407,6.45409259 L111.293407,6.45409259 Z" id="Shape" fill="#666666" sketch:type="MSShapeGroup" mask="url(#mask-22)"></path>
                                </g>
                                <g id="Clipped">
                                    <mask id="mask-24" sketch:name="SVGID_1_" fill="white">
                                        <use xlink:href="#path-23"></use>
                                    </mask>
                                    <g id="SVGID_1_"></g>
                                    <path d="M114,2.06544444 C114,2.02603704 114.024981,2 114.06263,2 L114.627,2 C114.684352,2 114.715667,2.0197037 114.735019,2.06544444 L115.919704,4.80988889 L115.944333,4.80988889 L117.110722,2.06544444 C117.129019,2.0197037 117.161389,2 117.218037,2 L117.775019,2 C117.813722,2 117.839056,2.02603704 117.839056,2.06544444 L117.839056,6.3882963 C117.839056,6.42735185 117.814074,6.45374074 117.775019,6.45374074 L117.224722,6.45374074 C117.18637,6.45374074 117.161389,6.42735185 117.161389,6.3882963 L117.161389,3.66355556 L117.135704,3.66355556 L116.223352,5.75953704 C116.19837,5.81864815 116.160019,5.84468519 116.102667,5.84468519 L115.735333,5.84468519 C115.679037,5.84468519 115.640333,5.81864815 115.614648,5.75953704 L114.703,3.66355556 L114.677667,3.66355556 L114.677667,6.3882963 C114.677667,6.42735185 114.652333,6.45374074 114.613981,6.45374074 L114.06263,6.45374074 C114.025333,6.45374074 114,6.42735185 114,6.3882963 L114,2.06544444 L114,2.06544444 Z" id="Shape" fill="#666666" sketch:type="MSShapeGroup" mask="url(#mask-24)"></path>
                                </g>
                            </g>
                        </g>
                    </g>
                </g>
            </g>
        </g>
    </g>
</svg>